<svg id="Layer_1" data-name="Layer 1" xmlns="http://www.w3.org/2000/svg" width="128" height="128" viewBox="0 0 128 128">
  <title>Cloud Functions</title>
  <path d="M126.47,58.12l-26.3-45.74A11.56,11.56,0,0,0,90.31,6.5H37.7a11.55,11.55,0,0,0-9.86,5.88L1.53,58a11.48,11.48,0,0,0,0,11.44l26.3,46a11.77,11.77,0,0,0,9.86,6.09H90.3a11.73,11.73,0,0,0,9.87-6.06l26.3-45.74A11.73,11.73,0,0,0,126.47,58.12Z" style="fill: #4285f4"/>
  <path d="M94.06,49.28,90.31,53l.82,23.59-3.45,5-2-2h1.84V71.41l-8.83-8.83-6.35,3.17.18.71L50,44,39.22,49.44,37.9,60.5l3.74,20.24,5.42,5.31-2.32,3.76L76.43,121.5H90.3a11.73,11.73,0,0,0,9.87-6.06l21.92-38.13Z" style="opacity: 0.070000000298023;isolation: isolate"/>
  <polygon points="44.59 89.56 49.88 84.27 41.95 76.34 41.95 51.66 49.88 43.73 44.59 38.44 34 49.03 34 78.97 44.59 89.56" style="fill: #fff"/>
  <circle cx="52.78" cy="64" r="3.75" style="fill: #fff"/>
  <circle cx="64" cy="64" r="3.75" style="fill: #fff"/>
  <circle cx="75.22" cy="64" r="3.75" style="fill: #fff"/>
  <polygon points="83.36 38.44 78.07 43.73 86 51.66 86 76.34 78.07 84.27 83.36 89.56 93.95 78.97 93.95 49.03 83.36 38.44" style="fill: #fff"/>
</svg>
