<svg xmlns="http://www.w3.org/2000/svg" width="192" height="192">
  <defs>
    <clipPath id="a">
      <path d="M143.41 47.34a4 4 0 0 0-6.77-2.16L115.88 66 99.54 34.89a4 4 0 0 0-7.08 0l-8.93 17-22.4-41.77a4 4 0 0 0-7.48 1.28L32 150l57.9 32.46a12 12 0 0 0 11.7 0L160 150z" fill="none"/>
    </clipPath>
    <linearGradient x1="56.9" y1="102.54" x2="48.9" y2="98.36" gradientUnits="userSpaceOnUse" id="b">
      <stop offset="0" stop-color="#a52714"/>
      <stop offset=".4" stop-color="#a52714" stop-opacity=".5"/>
      <stop offset=".8" stop-color="#a52714" stop-opacity="0"/>
    </linearGradient>
    <linearGradient x1="90.89" y1="90.91" x2="87.31" y2="87.33" gradientUnits="userSpaceOnUse" id="c">
      <stop offset="0" stop-color="#a52714" stop-opacity=".8"/>
      <stop offset=".5" stop-color="#a52714" stop-opacity=".21"/>
      <stop offset="1" stop-color="#a52714" stop-opacity="0"/>
    </linearGradient>
    <linearGradient x1="27.188" y1="40.281" x2="160.875" y2="173.968" gradientUnits="userSpaceOnUse" id="d">
      <stop offset="0" stop-color="#fff" stop-opacity=".1"/>
      <stop offset="1" stop-color="#fff" stop-opacity="0"/>
    </linearGradient>
  </defs>
  <g fill="none">
    <g clip-path="url(#a)">
      <path d="M32 150L53.66 11.39a4 4 0 0 1 7.48-1.27l22.4 41.78 8.93-17a4 4 0 0 1 7.08 0L160 150z" fill="#ffa000"/>
      <path d="M106 9L0 0v192l32-42z" fill="url(#b)" opacity=".12"/>
      <path d="M106.83 96.01l-23.3-44.12L32 150z" fill="#f57c00"/>
      <path d="M0 0h192v192H0z" fill="url(#c)" opacity=".2"/>
      <path d="M160 150L143.41 47.34a4 4 0 0 0-6.77-2.16L32 150l57.9 32.47a12 12 0 0 0 11.7 0z" fill="#ffca28"/>
      <path d="M143.41 47.34a4 4 0 0 0-6.77-2.16L115.88 66 99.54 34.89a4 4 0 0 0-7.08 0l-8.93 17-22.4-41.77a4 4 0 0 0-7.48 1.28L32 150h-.08l.07.08.57.28L115.83 67l20.78-20.8a4 4 0 0 1 6.78 2.16l16.45 101.74.16-.1zM32.19 149.81L53.66 12.39a4 4 0 0 1 7.48-1.28l22.4 41.78 8.93-17a4 4 0 0 1 7.08 0l16 30.43z" fill-opacity=".2" fill="#fff"/>
      <path d="M101.6 181.49a12 12 0 0 1-11.7 0l-57.76-32.4-.14.91 57.9 32.46a12 12 0 0 0 11.7 0L160 150l-.15-.92z" fill="#a52714" opacity=".2"/>
      <path d="M143.41 47.34a4 4 0 0 0-6.77-2.16L115.88 66 99.54 34.89a4 4 0 0 0-7.08 0l-8.93 17-22.4-41.77a4 4 0 0 0-7.48 1.28L32 150l57.9 32.46a12 12 0 0 0 11.7 0L160 150z" fill="url(#d)"/>
    </g>
    <circle cx="144" cy="144" r="40" fill="#fff"/>
    <path d="M144 124c-11.04 0-20 8.96-20 20s8.96 20 20 20 20-8.96 20-20-8.96-20-20-20zm-2 35.86c-7.9-.98-14-7.7-14-15.86 0-1.24.16-2.42.42-3.58L138 150v2c0 2.2 1.8 4 4 4zm13.8-5.08c-.52-1.62-2-2.78-3.8-2.78h-2v-6c0-1.1-.9-2-2-2h-12v-4h4c1.1 0 2-.9 2-2v-4h4c2.2 0 4-1.8 4-4v-.82c5.86 2.38 10 8.12 10 14.82 0 4.16-1.6 7.94-4.2 10.78z" fill-opacity=".54" fill="#000" fill-rule="evenodd"/>
  </g>
</svg>
