<?xml version="1.0" encoding="utf-8"?>
<!DOCTYPE svg PUBLIC "-//W3C//DTD SVG 1.1//EN" "http://www.w3.org/Graphics/SVG/1.1/DTD/svg11.dtd">
<svg version="1.1" 
  xmlns="http://www.w3.org/2000/svg" 
  xmlns:xlink="http://www.w3.org/1999/xlink" x="0px" y="0px" viewBox="0 0 1000 1000" enable-background="new 0 0 1000 1000" xml:space="preserve">
  <style type="text/css">
	  .st0{fill:#0081AC;}
  </style>
  <g>
    <g transform="matrix(1 0 0 -1 0 1920)">
      <path class="st0" d="M112.1,930C84,930,60,940,40,960c-20,20-30,44-30,72.1v775.8c0,28,10,52.1,30,72.1c20,20,44,30,72.1,30h775.8c28,0,52.1-10,72.1-30s30-44,30-72.1v-775.8c0-28-10-52.1-30-72.1s-44-30-72.1-30H112.1z M214.6,1529.8c10.3,0,19.9,2.4,28.6,7.1c8.7,4.8,15.7,11.4,20.8,19.8c5.2,8.4,7.8,17.6,7.8,27.4c0,15-5.6,27.8-16.7,38.4s-24.6,15.9-40.4,15.9s-29.3-5.3-40.6-15.9s-16.9-23.4-16.9-38.4c0-9.8,2.6-18.9,7.8-27.4c5.2-8.4,12.2-15,21-19.8C194.6,1532.2,204.2,1529.8,214.6,1529.8z M745.4,1241.2c14.4,0,26.4,1.5,35.9,4.5c5.7,1.6,10.3,3.1,13.9,4.5s8.8,3.6,15.9,6.7c7.1,3.1,13.1,6.4,18,9.8c4.9,3.4,10.5,7.9,16.7,13.5c6.3,5.6,11.4,11.6,15.3,18.2c3.9,6.5,7.4,14.4,10.4,23.7c3,9.3,4.9,19.2,5.7,29.8c0.5,9.3-0.1,18-2,26.3s-4.4,15.5-7.4,21.6c-3,6.1-7.4,12.3-13.3,18.6c-5.9,6.3-11,11.4-15.5,15.3c-4.5,3.9-10.8,8.4-18.8,13.3c-8,4.9-14.3,8.5-18.8,10.8c-4.5,2.3-10.8,5.6-19,10c-4.6,2.2-8,3.8-10.2,4.9c-12.3,6.3-21.6,11.9-28.2,16.9c-6.5,5-10.8,9.5-12.9,13.5c-2,3.9-3.1,8.4-3.1,13.3c0,2.2,0.1,4.6,0.4,7.4c0.8,8.4,6.5,16,16.9,22.7c10.5,6.7,22.4,10,35.7,10c7.6,0,15-0.8,22-2.5c7.1-1.6,13-3.7,17.8-6.1c4.8-2.4,8.9-4.9,12.5-7.4c3.5-2.4,6.1-4.5,7.8-6.1l2.5-2.9l18.8,69.8c-1.1,0.8-2.5,1.8-4.3,3.1c-1.8,1.2-5.8,3.5-12,6.7c-6.3,3.3-12.8,6.1-19.6,8.6c-6.8,2.5-15.4,4.6-25.9,6.5c-10.5,1.9-21,2.9-31.6,2.9c-33.8,0-62.6-8.4-86.6-25.1c-24-16.7-37.8-37.1-41.7-61c-0.8-5.7-1.2-11.4-1.2-17.1c0-16.1,2.9-31.6,8.8-46.8c5.9-15.1,15-28.9,27.6-41.4c12.5-12.5,27.2-21.5,44.1-27c15.5-4.9,28.8-10.2,39.8-15.9c11-5.7,19.5-11.6,25.3-17.8s8.8-12.2,8.8-18.2c0.3-3.5,0.2-6.9-0.2-10c-0.4-3.1-1.6-6.9-3.7-11.4c-2-4.5-4.8-8.4-8.4-11.6c-3.5-3.3-8.8-6.2-15.7-8.8c-6.9-2.6-15.2-4.2-24.7-4.7c-8.4-0.5-17.3,0-26.5,1.6c-9.3,1.6-17.4,3.9-24.5,6.7c-7.1,2.9-13.6,5.7-19.6,8.6c-6,2.9-10.6,5.4-13.9,7.6l-4.5,2.9l-24.1-73.5c1.6-0.8,3.7-1.8,6.1-2.9c2.4-1.1,7.8-3.1,16.1-5.9c8.3-2.9,16.7-5.4,25.3-7.6c8.6-2.2,19.3-4.2,32.1-5.9C720.6,1242,733.2,1241.2,745.4,1241.2z M458.8,1236.3c23.4,0,45.5,5.1,66.4,15.3s38.7,24,53.7,41.4c15,17.4,26.9,38.2,35.7,62.5c8.8,24.2,13.3,50,13.3,77.2c0,38.1-7.1,72.1-21.4,101.9c-14.3,29.8-34.3,53-60,69.6c-25.7,16.6-54.9,24.9-87.6,24.9c-33.5,0-63.1-8.2-88.8-24.5c-25.7-16.3-45.7-39.4-59.8-69.2c-14.2-29.8-21.2-64-21.2-102.7c0-58.8,15.6-106.2,46.8-142.3C366.8,1254.3,407.9,1236.3,458.8,1236.3z M459.2,1311c-10.6,0-20.8,2.5-30.6,7.6c-9.8,5-18.9,12.3-27.2,21.8s-14.9,22.3-19.8,38.2c-4.9,15.9-7.3,34-7.3,54.1s2.4,38.2,7.3,54.1c4.9,15.9,11.5,28.7,19.8,38.4c8.3,9.7,17.4,16.9,27.2,21.8c9.8,4.9,20,7.4,30.6,7.4c15,0,29.3-6.9,42.9-20.8c12.3-12.3,22-28,29.2-47.4s10.8-38.9,10.8-58.8c0-32.4-8-59.9-24.1-82.5C501.9,1322.3,482.3,1311,459.2,1311z M172.9,1256.7H255l0.8,247h-82.9V1256.7z"/>
    </g>
  </g>
</svg>