<?xml version="1.0" encoding="UTF-8"?>
<!DOCTYPE svg PUBLIC "-//W3C//DTD SVG 1.1//EN" "http://www.w3.org/Graphics/SVG/1.1/DTD/svg11.dtd">
<svg xmlns="http://www.w3.org/2000/svg" 
  xmlns:xlink="http://www.w3.org/1999/xlink" version="1.1" width="28pt" height="28pt" viewBox="0 0 28 28">
  <g id="surface1">
    <path style=" stroke:none;fill-rule:nonzero;fill:rgb(0%,0%,0%);fill-opacity:1;" d="M 23.332031 21.804688 L 14.816406 26.53125 C 14.234375 26.832031 13.648438 26.832031 13.066406 26.53125 L 4.667969 21.804688 L 19.890625 6.464844 L 20.300781 6.347656 C 20.648438 6.347656 20.847656 6.5 20.882812 6.8125 L 23.332031 21.804688 M 10.910156 6.695312 L 5.601562 15.503906 L 7.816406 1.5625 C 7.851562 1.25 8.050781 1.097656 8.398438 1.097656 C 8.632812 1.097656 8.785156 1.167969 8.867188 1.386719 L 11.375 5.996094 L 10.910156 6.695312 M 16.160156 8.167969 L 5.015625 19.355469 L 13.476562 5.003906 C 13.589844 4.773438 13.765625 4.667969 14 4.667969 C 14.234375 4.667969 14.386719 4.773438 14.464844 5.003906 Z M 16.160156 8.167969 "/>
  </g>
</svg>
