<?xml version="1.0" encoding="UTF-8"?>
<!DOCTYPE svg PUBLIC "-//W3C//DTD SVG 1.1//EN" "http://www.w3.org/Graphics/SVG/1.1/DTD/svg11.dtd">
<svg xmlns="http://www.w3.org/2000/svg" 
  xmlns:xlink="http://www.w3.org/1999/xlink" version="1.1" width="192" height="192">
  <path fill="#424242" d="M160.056 134.048v-76.08l-26.944-26.944 16.952-16.96L184 48v86.16l-.056.032v9.832l-33.904 33.912L133.112 161zm-128.112-.024l26.944 26.952-16.952 16.96L8 144V57.84l.056-.032v-9.832L41.96 14.064 58.888 31 31.944 57.952v76.08zm28.064-26c-6.647 0-12.036-5.389-12.036-12.036 0-6.647 5.389-12.036 12.036-12.036 6.645 0 12.032 5.387 12.032 12.032 0 6.645-5.387 12.032-12.032 12.032zm35.984 0c-6.647 0-12.036-5.389-12.036-12.036 0-6.647 5.389-12.036 12.036-12.036 6.645 0 12.032 5.387 12.032 12.032 0 6.645-5.387 12.032-12.032 12.032zm35.984 0c-6.647 0-12.036-5.389-12.036-12.036 0-6.647 5.389-12.036 12.036-12.036 6.645 0 12.032 5.387 12.032 12.032 0 6.645-5.387 12.032-12.032 12.032z"/>
</svg>
