<?xml version="1.0" encoding="UTF-8"?>
<!DOCTYPE svg PUBLIC "-//W3C//DTD SVG 1.1//EN" "http://www.w3.org/Graphics/SVG/1.1/DTD/svg11.dtd">
<svg xmlns="http://www.w3.org/2000/svg" 
  xmlns:xlink="http://www.w3.org/1999/xlink" version="1.1" width="24" height="24" viewBox="0 0 24 24">
  <style type="text/css">
	  .st0{fill:#F57C00;}
  </style>
  <path fill="none" d="M0 0h24v24H0V0z"/>
  <path class="st0" d="M4 6H2v14c0 1.1.9 2 2 2h14v-2H4V6z"/>
  <path fill="none" d="M0 0h24v24H0V0z"/>
  <path class="st0" d="M20 2H8c-1.1 0-2 .9-2 2v12c0 1.1.9 2 2 2h12c1.1 0 2-.9 2-2V4c0-1.1-.9-2-2-2zm0 10l-2.5-1.5L15 12V4h5v8z"/>
</svg>